# xmcd
#
# Track frame offsets:
#  150
#  18680
#  36407
#  54513
#  73778
#  91340
#  109009
#  128463
#  147034
#  161033
#
# Disc length: 2426 seconds
#
# Revision: 1
# Processed by: cddbd v1.5.1PL0 Copyright (c) Steve Scherf et al.
# Submitted via: Collectorz.com_Music_Collector 6.9
#
DISCID=8609780a
DTITLE=Roy Roberts - Johnny Rawls - Partners and Friends
DYEAR=2004
DGENRE=Blues
TTITLE0=Don't Let This Love Slip Away
TTITLE1=How Long
TTITLE2=You Are The One For Me
TTITLE3=Country Boy
TTITLE4=Reach Out
TTITLE5=Can't You See
TTITLE6=What's Been Going On
TTITLE7=Shaggin' Down In Carolina
TTITLE8=Making A Fool Of Me
TTITLE9=Let's Go To The Beach
EXTD=
EXTT0=
EXTT1=
EXTT2=
EXTT3=
EXTT4=
EXTT5=
EXTT6=
EXTT7=
EXTT8=
EXTT9=
PLAYORDER=
